<svg width="20" height="20" viewBox="0 0 20 20" fill="none" xmlns="http://www.w3.org/2000/svg">
<g opacity="0.4">
<path fill-rule="evenodd" clip-rule="evenodd" d="M10.0003 18.3332C5.40033 18.3332 1.66699 14.5915 1.66699 9.99984C1.66699 5.39984 5.40033 1.6665 10.0003 1.6665C14.592 1.6665 18.3337 5.39984 18.3337 9.99984C18.3337 14.5915 14.592 18.3332 10.0003 18.3332ZM13.3337 8.34984C13.0837 8.10817 12.692 8.10817 12.4503 8.35817L10.0003 10.8165L7.55033 8.35817C7.30866 8.10817 6.90866 8.10817 6.66699 8.34984C6.41699 8.59984 6.41699 8.9915 6.66699 9.23317L9.55866 12.1415C9.67533 12.2582 9.83366 12.3248 10.0003 12.3248C10.167 12.3248 10.3253 12.2582 10.442 12.1415L13.3337 9.23317C13.4587 9.1165 13.517 8.95817 13.517 8.79984C13.517 8.63317 13.4587 8.47484 13.3337 8.34984Z" fill="#F1F1F1"/>
</g>
</svg>
