<svg width="16" height="16" viewBox="0 0 16 16" fill="none" xmlns="http://www.w3.org/2000/svg">
<path d="M15.4343 2.17712C15.7467 1.8647 15.7467 1.35816 15.4343 1.04574L14.9543 0.565685C14.6418 0.253266 14.1353 0.253266 13.8229 0.565685L8.56569 5.82289C8.25327 6.1353 7.74673 6.13531 7.43431 5.82289L2.17712 0.565687C1.8647 0.253267 1.35816 0.253266 1.04574 0.565685L0.565685 1.04574C0.253266 1.35816 0.253266 1.86469 0.565685 2.17711L5.82289 7.43431C6.1353 7.74673 6.13531 8.25327 5.82289 8.56569L0.565687 13.8229C0.253267 14.1353 0.253266 14.6418 0.565685 14.9543L1.04574 15.4343C1.35816 15.7467 1.86469 15.7467 2.17711 15.4343L7.43431 10.1771C7.74673 9.8647 8.25327 9.86469 8.56569 10.1771L13.8229 15.4343C14.1353 15.7467 14.6418 15.7467 14.9543 15.4343L15.4343 14.9543C15.7467 14.6418 15.7467 14.1353 15.4343 13.8229L10.1771 8.56569C9.8647 8.25327 9.86469 7.74673 10.1771 7.43431L15.4343 2.17712Z" fill="white"/>
</svg>
