<svg width="26" height="26" viewBox="0 0 26 26" fill="none" xmlns="http://www.w3.org/2000/svg">
<path fill-rule="evenodd" clip-rule="evenodd" d="M9.66939 17.7557H15.5044C15.9441 17.7557 16.3088 17.3873 16.3088 16.9432C16.3088 16.499 15.9441 16.1415 15.5044 16.1415H9.66939C9.22962 16.1415 8.86494 16.499 8.86494 16.9432C8.86494 17.3873 9.22962 17.7557 9.66939 17.7557ZM13.2948 10.7248H9.66939C9.22962 10.7248 8.86494 11.0932 8.86494 11.5373C8.86494 11.9815 9.22962 12.339 9.66939 12.339H13.2948C13.7346 12.339 14.0993 11.9815 14.0993 11.5373C14.0993 11.0932 13.7346 10.7248 13.2948 10.7248ZM20.9494 9.77758C21.2015 9.77467 21.4761 9.7715 21.7255 9.7715C21.9936 9.7715 22.2082 9.98817 22.2082 10.259V18.969C22.2082 21.6557 20.0522 23.8332 17.3922 23.8332H8.85421C6.06543 23.8332 3.7915 21.5473 3.7915 18.7307V7.05234C3.7915 4.36567 5.95817 2.1665 8.62896 2.1665H14.3567C14.6356 2.1665 14.8501 2.394 14.8501 2.66484V6.15317C14.8501 8.13567 16.4697 9.76067 18.4326 9.7715C18.8911 9.7715 19.2953 9.77493 19.649 9.77793C19.9242 9.78026 20.1688 9.78234 20.3847 9.78234C20.5374 9.78234 20.7353 9.78005 20.9494 9.77758ZM21.2452 8.19634C20.3635 8.19959 19.3241 8.19634 18.5765 8.18876C17.3902 8.18876 16.4131 7.20184 16.4131 6.00367V3.148C16.4131 2.68109 16.9741 2.44925 17.2948 2.78617C17.875 3.39555 18.6724 4.23311 19.4661 5.06694C20.2585 5.89927 21.0473 6.72787 21.6131 7.32209C21.9263 7.65034 21.6967 8.19525 21.2452 8.19634Z" fill="#00A795"/>
</svg>
