<svg width="24" height="24" viewBox="0 0 24 24" fill="none" xmlns="http://www.w3.org/2000/svg">
<path fill-rule="evenodd" clip-rule="evenodd" d="M12 2.00049C6.47679 2.00049 2 6.47727 2 12.0005C2 17.5237 6.47679 22.0005 12 22.0005C17.5232 22.0005 22 17.5237 22 12.0005C22 6.47727 17.5232 2.00049 12 2.00049ZM12 3.50049C16.6948 3.50049 20.5 7.3057 20.5 12.0005C20.5 16.6953 16.6948 20.5005 12 20.5005C7.30521 20.5005 3.5 16.6953 3.5 12.0005C3.5 7.3057 7.30521 3.50049 12 3.50049ZM12.4048 7.74512C12.3551 7.37904 12.0413 7.09689 11.6616 7.09689C11.2474 7.09689 10.9116 7.43267 10.9116 7.84689V12.6939L10.92 12.8056C10.9531 13.0257 11.0829 13.222 11.2774 13.338L15.0474 15.587L15.1383 15.6332C15.4781 15.7781 15.8812 15.6532 16.0757 15.3271L16.122 15.2362C16.2669 14.8964 16.1419 14.4933 15.8158 14.2988L12.4112 12.267L12.4116 7.84689L12.4048 7.74512Z" fill="#A6A6A6"/>
</svg>
